<svg width="129" height="31" viewBox="0 0 129 31" fill="none" xmlns="http://www.w3.org/2000/svg">
<path d="M8.27151 5.96472C9.84233 5.96472 11.2649 6.31074 12.5391 7.00277C13.8243 7.68383 14.7745 8.60655 15.3896 9.77093C15.5214 10.0016 15.5874 10.2652 15.5874 10.5618C15.5874 11.0122 15.4226 11.4022 15.093 11.7317C14.7745 12.0503 14.39 12.2095 13.9396 12.2095C13.665 12.2095 13.3794 12.1217 13.0828 11.9459C12.7972 11.7592 12.594 11.545 12.4732 11.3033C12.1107 10.6222 11.5669 10.1115 10.8419 9.77093C10.1169 9.4304 9.25465 9.26014 8.25504 9.26014C7.67284 9.26014 7.01376 9.33703 6.27778 9.49082C5.5418 9.64461 4.90469 9.89176 4.36644 10.2323C3.82818 10.5728 3.55906 11.0342 3.55906 11.6164C3.55906 12.0448 3.77875 12.3853 4.21814 12.6379C4.66852 12.8796 5.21775 13.0664 5.86585 13.1982C6.52494 13.33 7.18402 13.4288 7.84311 13.4948C8.50219 13.5497 9.04044 13.5991 9.45786 13.6431C10.2707 13.7309 11.0726 13.8682 11.8635 14.055C12.6544 14.2307 13.3794 14.4944 14.0385 14.8459C14.6976 15.1974 15.2194 15.6752 15.6038 16.2794C15.9993 16.8836 16.197 17.6525 16.197 18.5862C16.197 19.9153 15.8125 21.0028 15.0436 21.8487C14.2747 22.6945 13.2915 23.3206 12.0942 23.727C10.8969 24.1335 9.64461 24.3367 8.33742 24.3367C6.54691 24.3367 4.91567 23.9852 3.44372 23.2822C1.98275 22.5682 0.900749 21.5301 0.197725 20.168C0.0659085 19.9044 0 19.6462 0 19.3936C0 18.9432 0.159279 18.5587 0.477836 18.2402C0.807379 17.9106 1.19734 17.7459 1.64771 17.7459C1.93331 17.7459 2.21892 17.8392 2.50452 18.026C2.80111 18.2017 3.00982 18.4159 3.13065 18.6686C3.55906 19.5034 4.21814 20.1076 5.10791 20.4811C6.00866 20.8545 7.07967 21.0413 8.32094 21.0413C8.98003 21.0413 9.66108 20.9699 10.3641 20.8271C11.0781 20.6733 11.6768 20.4151 12.1601 20.0527C12.6544 19.6902 12.9016 19.1958 12.9016 18.5697C12.9016 18.0864 12.6874 17.7404 12.259 17.5317C11.8416 17.312 11.3363 17.1692 10.7431 17.1032C10.1609 17.0373 9.61714 16.9769 9.11185 16.922C8.14519 16.8231 7.14558 16.6968 6.11301 16.543C5.08044 16.3783 4.11928 16.1201 3.22951 15.7686C2.35074 15.4171 1.63673 14.9118 1.08749 14.2527C0.538252 13.5936 0.263634 12.7148 0.263634 11.6164C0.263634 10.6277 0.499806 9.77642 0.97215 9.06241C1.45548 8.34841 2.09259 7.76621 2.8835 7.31584C3.6744 6.85448 4.5367 6.51395 5.4704 6.29426C6.41509 6.07456 7.34879 5.96472 8.27151 5.96472Z" fill="#FF7D63"/>
<path d="M17.908 1.59828C17.908 1.15889 18.0673 0.785409 18.3858 0.477836C18.7044 0.159279 19.0943 0 19.5557 0C20.0061 0 20.3905 0.159279 20.7091 0.477836C21.0386 0.785409 21.2034 1.15889 21.2034 1.59828V8.7823C21.6208 7.89254 22.2305 7.21148 23.0324 6.73914C23.8343 6.25581 24.6087 6.01415 25.3556 6.01415C27.0802 6.01415 28.4863 6.36566 29.5738 7.06868C30.6723 7.77171 31.4796 8.74935 31.9959 10.0016C32.5122 11.2539 32.7703 12.6984 32.7703 14.3351V14.4834L32.7539 22.8043V22.8208C32.7539 23.2602 32.5891 23.6392 32.2596 23.9577C31.941 24.2653 31.5565 24.4191 31.1062 24.4191C30.6558 24.4191 30.2658 24.2653 29.9363 23.9577C29.6177 23.6392 29.4584 23.2602 29.4584 22.8208V22.8043L29.4749 14.5658V14.5328C29.4749 12.8412 29.1948 11.5505 28.6346 10.6607C28.0744 9.77093 26.9814 9.32605 25.3556 9.32605C23.9826 9.32605 22.95 9.80388 22.2579 10.7596C21.5769 11.7152 21.2364 12.9455 21.2364 14.4504V22.8373C21.2364 23.2767 21.0716 23.6556 20.7421 23.9742C20.4235 24.2818 20.039 24.4356 19.5887 24.4356C19.1163 24.4356 18.7154 24.2763 18.3858 23.9577C18.0673 23.6282 17.908 23.2547 17.908 22.8373V1.59828Z" fill="#FF7D63"/>
<path d="M42.6705 5.99767C43.9337 5.99767 45.1091 6.23933 46.1966 6.72266C47.295 7.20599 48.2562 7.87606 49.0801 8.73287C49.9039 9.58968 50.5465 10.5728 51.0079 11.6823C51.4802 12.7917 51.7164 13.9726 51.7164 15.2249C51.7164 16.4551 51.4802 17.625 51.0079 18.7345C50.5355 19.833 49.8819 20.8051 49.0471 21.6509C48.2232 22.4858 47.2621 23.1449 46.1636 23.6282C45.0761 24.1115 43.9117 24.3532 42.6705 24.3532C41.4402 24.3532 40.2758 24.117 39.1773 23.6447C38.0898 23.1723 37.1287 22.5187 36.2938 21.6839C35.47 20.849 34.8219 19.8824 34.3495 18.7839C33.8772 17.6745 33.641 16.4881 33.641 15.2249C33.641 13.9726 33.8772 12.7917 34.3495 11.6823C34.8219 10.5728 35.47 9.59517 36.2938 8.74935C37.1287 7.89254 38.0898 7.22247 39.1773 6.73914C40.2648 6.24483 41.4292 5.99767 42.6705 5.99767ZM36.9694 15.2578C36.9694 16.3233 37.2275 17.2955 37.7438 18.1743C38.2711 19.0421 38.9686 19.7341 39.8364 20.2504C40.7042 20.7667 41.6544 21.0248 42.6869 21.0248C43.7415 21.0248 44.6971 20.7612 45.554 20.2339C46.4217 19.6956 47.1083 18.9871 47.6136 18.1084C48.1299 17.2296 48.388 16.2684 48.388 15.2249C48.388 14.1593 48.1354 13.1817 47.6301 12.2919C47.1248 11.3912 46.4382 10.6717 45.5704 10.1334C44.7136 9.59517 43.747 9.32605 42.6705 9.32605C41.583 9.32605 40.6108 9.60067 39.754 10.1499C38.8972 10.6882 38.2161 11.4077 37.7108 12.3084C37.2165 13.1982 36.9694 14.1813 36.9694 15.2578Z" fill="#FF7D63"/>
<path d="M70.1352 15.2084C70.1352 16.4497 69.9045 17.658 69.4431 18.8333C68.9928 20.0087 68.3117 21.0468 67.4 21.9475C66.5981 22.7274 65.6754 23.3316 64.6318 23.76C63.5883 24.1884 62.5063 24.4026 61.3858 24.4026C60.2434 24.4026 59.2273 24.1609 58.3376 23.6776C57.4588 23.1943 56.6624 22.5407 55.9484 21.7168V28.6537C55.9484 29.1041 55.7836 29.4885 55.4541 29.8071C55.1355 30.1366 54.751 30.3014 54.3007 30.3014C53.8503 30.3014 53.4603 30.1366 53.1308 29.8071C52.8122 29.4885 52.653 29.1041 52.653 28.6537V7.61243C52.653 7.16205 52.8122 6.77759 53.1308 6.45903C53.4603 6.12949 53.8503 5.96472 54.3007 5.96472C54.751 5.96472 55.0861 6.12949 55.3058 6.45903C55.5364 6.77759 55.6847 7.16205 55.7507 7.61243L55.9484 8.94707C56.5745 8.04632 57.3984 7.33781 58.4199 6.82153C59.4525 6.30524 60.4796 6.0471 61.5012 6.0471C62.7424 6.0471 63.8849 6.29426 64.9284 6.78857C65.9829 7.28289 66.9002 7.95845 67.6801 8.81526C68.46 9.66108 69.0642 10.6332 69.4926 11.7317C69.921 12.8302 70.1352 13.9891 70.1352 15.2084ZM61.5341 9.34252C60.8201 9.34252 60.1116 9.5018 59.4086 9.82036C58.7055 10.1279 58.1069 10.5563 57.6126 11.1056C57.1183 11.6438 56.7338 12.2864 56.4592 13.0334C56.1955 13.7694 56.0637 14.5218 56.0637 15.2908C56.0637 16.3453 56.2944 17.3174 56.7558 18.2072C57.2171 19.097 57.8542 19.811 58.6671 20.3492C59.48 20.8875 60.4082 21.1566 61.4517 21.1566C62.4953 21.1566 63.4235 20.8765 64.2364 20.3163C65.0492 19.7451 65.6864 19.0091 66.1477 18.1084C66.6201 17.1966 66.8562 16.23 66.8562 15.2084C66.8562 14.1758 66.6255 13.2146 66.1642 12.3249C65.7028 11.4351 65.0712 10.7156 64.2693 10.1664C63.4674 9.61714 62.5557 9.34252 61.5341 9.34252Z" fill="#FF7D63"/>
<path d="M77.9592 5.98119C79.0247 5.98119 79.9584 6.23933 80.7603 6.75562C81.5732 7.2719 82.2377 7.89803 82.754 8.63401C83.3692 7.92 84.1106 7.29936 84.9784 6.77209C85.8462 6.23384 86.8129 5.96472 87.8784 5.96472C89.2844 5.96472 90.4488 6.34369 91.3715 7.10164C92.3052 7.8486 92.9973 8.83173 93.4477 10.051C93.898 11.2703 94.1232 12.5885 94.1232 14.0055L94.1397 22.7879C94.1397 23.2272 93.9804 23.6062 93.6619 23.9248C93.3433 24.2433 92.9533 24.4026 92.492 24.4026C92.0306 24.4026 91.6407 24.2433 91.3221 23.9248C91.0036 23.6062 90.8443 23.2272 90.8443 22.7879L90.8278 14.0385C90.8278 13.2037 90.7509 12.4237 90.5971 11.6988C90.4433 10.9628 90.1632 10.3696 89.7568 9.91922C89.3503 9.46885 88.7627 9.24366 87.9937 9.24366C87.1809 9.24366 86.4833 9.46885 85.9011 9.91922C85.3299 10.3696 84.8905 10.9628 84.583 11.6988C84.2864 12.4237 84.1381 13.2092 84.1381 14.055L84.1546 22.8373C84.1546 23.2767 83.9898 23.6556 83.6602 23.9742C83.3417 24.2818 82.9572 24.4356 82.5069 24.4356C82.0455 24.4356 81.6555 24.2763 81.337 23.9577C81.0184 23.6392 80.8591 23.2602 80.8591 22.8208V14.0715C80.8591 13.0389 80.6834 12.1656 80.3319 11.4516C79.9913 10.7376 79.5465 10.1993 78.9972 9.83684C78.459 9.46336 77.9042 9.27662 77.333 9.27662C76.5202 9.27662 75.7897 9.65559 75.1416 10.4135C74.4935 11.1715 74.1694 12.3523 74.1694 13.9561V22.8373C74.1694 23.2767 74.0047 23.6556 73.6751 23.9742C73.3566 24.2818 72.9721 24.4356 72.5217 24.4356C72.0713 24.4356 71.6814 24.2763 71.3518 23.9577C71.0333 23.6392 70.874 23.2602 70.874 22.8208V7.57947C70.874 7.1291 70.9564 6.75013 71.1212 6.44255C71.2969 6.12399 71.6155 5.96472 72.0768 5.96472C72.4393 5.96472 72.7744 6.08006 73.0819 6.31074C73.3895 6.54142 73.6367 6.92588 73.8234 7.46413L74.1365 8.37037C74.488 7.64538 75.0262 7.06868 75.7512 6.64028C76.4872 6.20089 77.2232 5.98119 77.9592 5.98119Z" fill="#FF7D63"/>
<path d="M103.793 6.0471C105.254 6.0471 106.594 6.4096 107.813 7.13459C109.032 7.85958 110.01 8.83723 110.746 10.0675C111.493 11.2868 111.866 12.6434 111.866 14.1374C111.866 14.4449 111.85 14.758 111.817 15.0766C111.773 15.483 111.586 15.829 111.257 16.1146C110.938 16.3892 110.576 16.5265 110.169 16.5265L98.6518 16.543C98.8385 17.3339 99.19 18.0754 99.7063 18.7674C100.223 19.4595 100.849 20.0197 101.585 20.4481C102.332 20.8765 103.145 21.0907 104.023 21.0907C104.968 21.0907 105.814 20.86 106.561 20.3987C107.308 19.9373 107.89 19.4046 108.307 18.8004C108.439 18.5917 108.637 18.4159 108.901 18.2731C109.175 18.1303 109.433 18.0589 109.675 18.0589C110.125 18.0589 110.51 18.2237 110.828 18.5532C111.158 18.8828 111.323 19.2727 111.323 19.7231C111.323 20.0746 111.224 20.3877 111.026 20.6623C110.345 21.6619 109.406 22.5297 108.209 23.2657C107.022 23.9907 105.644 24.3532 104.073 24.3532C102.81 24.3532 101.634 24.106 100.547 23.6117C99.4702 23.1174 98.531 22.4418 97.7291 21.585C96.9272 20.7282 96.3011 19.7451 95.8507 18.6356C95.4113 17.5152 95.1916 16.3343 95.1916 15.093C95.1916 13.8957 95.4113 12.7588 95.8507 11.6823C96.2901 10.5948 96.8997 9.62813 97.6796 8.7823C98.4705 7.93648 99.3878 7.2719 100.431 6.78857C101.475 6.29426 102.595 6.0471 103.793 6.0471ZM108.472 13.2311C108.263 12.1546 107.725 11.2374 106.857 10.4794C105.99 9.7215 104.968 9.34252 103.793 9.34252C102.595 9.34252 101.535 9.73248 100.613 10.5124C99.7008 11.2923 99.0857 12.2041 98.7671 13.2476L108.472 13.2311Z" fill="#FF7D63"/>
<path d="M120.926 6.0471C122.387 6.0471 123.727 6.4096 124.947 7.13459C126.166 7.85958 127.144 8.83723 127.88 10.0675C128.627 11.2868 129 12.6434 129 14.1374C129 14.4449 128.984 14.758 128.951 15.0766C128.907 15.483 128.72 15.829 128.39 16.1146C128.072 16.3892 127.709 16.5265 127.303 16.5265L115.785 16.543C115.972 17.3339 116.324 18.0754 116.84 18.7674C117.356 19.4595 117.982 20.0197 118.718 20.4481C119.465 20.8765 120.278 21.0907 121.157 21.0907C122.102 21.0907 122.947 20.86 123.694 20.3987C124.441 19.9373 125.024 19.4046 125.441 18.8004C125.573 18.5917 125.77 18.4159 126.034 18.2731C126.309 18.1303 126.567 18.0589 126.809 18.0589C127.259 18.0589 127.643 18.2237 127.962 18.5532C128.291 18.8828 128.456 19.2727 128.456 19.7231C128.456 20.0746 128.357 20.3877 128.16 20.6623C127.479 21.6619 126.539 22.5297 125.342 23.2657C124.156 23.9907 122.777 24.3532 121.206 24.3532C119.943 24.3532 118.768 24.106 117.68 23.6117C116.604 23.1174 115.665 22.4418 114.863 21.585C114.061 20.7282 113.435 19.7451 112.984 18.6356C112.545 17.5152 112.325 16.3343 112.325 15.093C112.325 13.8957 112.545 12.7588 112.984 11.6823C113.424 10.5948 114.033 9.62813 114.813 8.7823C115.604 7.93648 116.521 7.2719 117.565 6.78857C118.608 6.29426 119.729 6.0471 120.926 6.0471ZM125.606 13.2311C125.397 12.1546 124.859 11.2374 123.991 10.4794C123.123 9.7215 122.102 9.34252 120.926 9.34252C119.729 9.34252 118.669 9.73248 117.746 10.5124C116.834 11.2923 116.219 12.2041 115.901 13.2476L125.606 13.2311Z" fill="#FF7D63"/>
<rect x="111.736" y="27.0771" width="3.37452" height="40.8316" rx="1.68726" transform="rotate(90 111.736 27.0771)" fill="#DFDFDF"/>
<rect x="111.704" width="3.37452" height="40.8316" rx="1.68726" transform="rotate(90 111.704 0)" fill="#DFDFDF"/>
</svg>
